<svg id="Layer_1" data-name="Layer 1" xmlns="http://www.w3.org/2000/svg" viewBox="0 0 73.05 41"><defs><style>.cls-1{fill:#fff;}</style></defs><title>md-logo-white</title><path class="cls-1" d="M72.65,16.57a22.65,22.65,0,0,0-1.33-4.51A20.46,20.46,0,0,0,68.8,7.65a16.87,16.87,0,0,0-4-3.79,20.05,20.05,0,0,0-5.67-2.63,26.43,26.43,0,0,0-7.62-1h-17l-12.92,31h-.23l-13-31H0v41H5.56V7.54h.12l13.84,33.7h3.7L36.49,9l1.36-3.5H51.11a17.33,17.33,0,0,1,8.1,1.65,14.29,14.29,0,0,1,4.9,4,13.94,13.94,0,0,1,2.4,5,20.24,20.24,0,0,1,.64,4.6,15.25,15.25,0,0,1-1.39,6.69A13.68,13.68,0,0,1,62,32.21a16.25,16.25,0,0,1-5.53,2.87,23.17,23.17,0,0,1-6.69,1H37.18v5.21h13.4a25.18,25.18,0,0,0,9.7-1.73,21,21,0,0,0,7-4.61,19.34,19.34,0,0,0,4.29-6.54,20.71,20.71,0,0,0,1.44-7.62A23.79,23.79,0,0,0,72.65,16.57Z" transform="translate(0 -0.24)"/><rect class="cls-1" x="37.18" y="9.23" width="5.58" height="22.77"/></svg>